<svg width="162" height="162" viewBox="0 0 162 162" fill="none" xmlns="http://www.w3.org/2000/svg">
<rect width="162" height="162" rx="32" fill="#202123"/>
<path d="M27.7082 35.927H35.6745L41.1542 49.281H41.4305L46.9103 35.927H54.8766V59.5037H48.614V45.8734H48.4298L43.1804 59.3195H39.4044L34.1549 45.7813H33.9707V59.5037H27.7082V35.927ZM63.3382 35.927V59.5037H56.9375V35.927H63.3382ZM87.4101 44.7682H80.9173C80.8713 44.231 80.7485 43.7437 80.5489 43.3062C80.3571 42.8688 80.0884 42.4927 79.7431 42.178C79.4054 41.8557 78.9948 41.6101 78.5113 41.4413C78.0278 41.2647 77.479 41.1765 76.8651 41.1765C75.7906 41.1765 74.8812 41.4374 74.1367 41.9593C73.3999 42.4812 72.8397 43.2295 72.456 44.2041C72.0799 45.1788 71.8919 46.3492 71.8919 47.7153C71.8919 49.1582 72.0837 50.3669 72.4675 51.3416C72.8589 52.3086 73.423 53.0377 74.1597 53.5289C74.8965 54.0124 75.7829 54.2542 76.819 54.2542C77.41 54.2542 77.9395 54.1813 78.4077 54.0354C78.8758 53.8819 79.2826 53.6632 79.628 53.3793C79.9733 53.0953 80.2534 52.7538 80.4683 52.3547C80.6909 51.9479 80.8406 51.4913 80.9173 50.9847L87.4101 51.0308C87.3334 52.0285 87.0532 53.0454 86.5697 54.0815C86.0862 55.1099 85.3993 56.0616 84.5091 56.9365C83.6265 57.8037 82.5328 58.5021 81.2281 59.0317C79.9234 59.5612 78.4077 59.826 76.6809 59.826C74.5166 59.826 72.5749 59.3617 70.8558 58.433C69.1443 57.5044 67.7897 56.1383 66.792 54.3348C65.802 52.5312 65.307 50.3247 65.307 47.7153C65.307 45.0906 65.8135 42.8803 66.8266 41.0844C67.8396 39.2808 69.2057 37.9186 70.9249 36.9976C72.644 36.069 74.5627 35.6046 76.6809 35.6046C78.1698 35.6046 79.5397 35.808 80.7907 36.2148C82.0417 36.6215 83.1391 37.2163 84.0831 37.9992C85.0271 38.7743 85.7869 39.7298 86.3625 40.8657C86.9381 42.0015 87.2873 43.3024 87.4101 44.7682ZM89.3415 59.5037V35.927H95.7422V45.459H96.0645L103.156 35.927H110.616L102.649 46.426L110.8 59.5037H103.156L97.8604 50.6624L95.7422 53.4253V59.5037H89.3415ZM110.576 35.927H117.713L122.318 45.505H122.502L127.107 35.927H134.244L125.587 52.0899V59.5037H119.233V52.0899L110.576 35.927ZM70.1058 115.715C70.1058 118.34 69.5955 120.554 68.5747 122.358C67.554 124.154 66.1764 125.516 64.4419 126.445C62.7074 127.366 60.7734 127.826 58.6398 127.826C56.4909 127.826 54.5492 127.362 52.8147 126.433C51.0879 125.497 49.7141 124.131 48.6934 122.335C47.6804 120.531 47.1738 118.325 47.1738 115.715C47.1738 113.091 47.6804 110.88 48.6934 109.084C49.7141 107.281 51.0879 105.919 52.8147 104.998C54.5492 104.069 56.4909 103.605 58.6398 103.605C60.7734 103.605 62.7074 104.069 64.4419 104.998C66.1764 105.919 67.554 107.281 68.5747 109.084C69.5955 110.88 70.1058 113.091 70.1058 115.715ZM63.5209 115.715C63.5209 114.303 63.3329 113.114 62.9568 112.147C62.5885 111.172 62.0397 110.435 61.3106 109.936C60.5892 109.43 59.6989 109.176 58.6398 109.176C57.5807 109.176 56.6866 109.43 55.9575 109.936C55.2361 110.435 54.6874 111.172 54.3113 112.147C53.9429 113.114 53.7587 114.303 53.7587 115.715C53.7587 117.127 53.9429 118.321 54.3113 119.296C54.6874 120.263 55.2361 120.999 55.9575 121.506C56.6866 122.005 57.5807 122.254 58.6398 122.254C59.6989 122.254 60.5892 122.005 61.3106 121.506C62.0397 120.999 62.5885 120.263 62.9568 119.296C63.3329 118.321 63.5209 117.127 63.5209 115.715ZM86.0474 103.927H92.4481V119.031C92.4481 120.827 92.0183 122.381 91.1587 123.693C90.3068 124.998 89.1172 126.007 87.59 126.721C86.0627 127.427 84.2899 127.78 82.2714 127.78C80.2376 127.78 78.4571 127.427 76.9298 126.721C75.4026 126.007 74.213 124.998 73.3611 123.693C72.5169 122.381 72.0948 120.827 72.0948 119.031V103.927H78.4955V118.478C78.4955 119.207 78.6566 119.86 78.979 120.435C79.3013 121.003 79.7464 121.448 80.3144 121.771C80.89 122.093 81.5423 122.254 82.2714 122.254C83.0082 122.254 83.6605 122.093 84.2285 121.771C84.7964 121.448 85.2415 121.003 85.5639 120.435C85.8862 119.86 86.0474 119.207 86.0474 118.478V103.927ZM93.8729 109.084V103.927H114.364V109.084H107.273V127.504H100.964V109.084H93.8729Z" fill="#B2C2FF"/>
<path d="M25.3827 93.5037L22.3435 69.927H29.481L30.3099 84.4322H30.4941L36.7106 69.927H42.3285L43.756 84.4782H43.9401L49.558 69.927H56.6955L45.8281 93.5037H39.7037L37.9078 80.3339H37.7236L31.5071 93.5037H25.3827ZM77.121 82.1298C76.6912 84.6931 75.8393 86.842 74.5653 88.5765C73.2913 90.311 71.7449 91.6195 69.926 92.5021C68.107 93.3847 66.1615 93.826 64.0893 93.826C61.879 93.826 59.9604 93.3463 58.3333 92.387C56.7063 91.4277 55.5205 90.0232 54.7761 88.1736C54.0317 86.324 53.882 84.0638 54.3271 81.393C54.7416 78.8296 55.5858 76.673 56.8598 74.9232C58.1338 73.1734 59.6879 71.8495 61.5222 70.9516C63.3564 70.0536 65.3173 69.6046 67.4048 69.6046C69.5998 69.6046 71.5069 70.0882 73.1263 71.0552C74.7533 72.0222 75.9352 73.4382 76.672 75.3031C77.4165 77.1681 77.5661 79.4436 77.121 82.1298ZM70.6742 81.393C70.8891 80.0422 70.9045 78.9064 70.7203 77.9854C70.5361 77.0568 70.1485 76.3584 69.5576 75.8902C68.9666 75.4144 68.1723 75.1765 67.1746 75.1765C66.0387 75.1765 65.0333 75.4528 64.1584 76.0053C63.2835 76.5579 62.5582 77.3523 61.9826 78.3883C61.407 79.4244 61.0041 80.6716 60.7739 82.1298C60.5283 83.4959 60.5053 84.6317 60.7048 85.5373C60.912 86.4429 61.3188 87.1221 61.9251 87.575C62.5391 88.0278 63.3372 88.2542 64.3196 88.2542C65.4401 88.2542 66.4301 87.9856 67.2897 87.4483C68.1569 86.9111 68.8745 86.1321 69.4424 85.1114C70.018 84.0906 70.4286 82.8512 70.6742 81.393ZM77.2219 93.5037L81.136 69.927H91.3127C93.0625 69.927 94.5399 70.2455 95.7448 70.8825C96.9498 71.5195 97.817 72.4366 98.3466 73.6339C98.8761 74.8311 99.0027 76.2663 98.7265 77.9394C98.4502 79.6278 97.84 81.0515 96.896 82.2103C95.9597 83.3615 94.7663 84.2365 93.3158 84.8351C91.8729 85.426 90.2536 85.7215 88.4577 85.7215H82.3793L83.2082 80.7483H87.9972C88.7493 80.7483 89.4094 80.6562 89.9773 80.472C90.5452 80.2802 91.0057 79.9808 91.3587 79.5741C91.7118 79.1596 91.942 78.6147 92.0495 77.9394C92.1569 77.264 92.1032 76.7153 91.8883 76.2931C91.6734 75.8634 91.3165 75.5487 90.8177 75.3492C90.3188 75.1419 89.701 75.0383 88.9642 75.0383H86.7079L83.6226 93.5037H77.2219ZM92.8323 82.6823L96.9306 93.5037H89.9773L86.0171 82.6823H92.8323ZM98.2202 93.5037L102.134 69.927H108.535L106.969 79.459H107.292L115.949 69.927H123.409L113.738 80.426L119.679 93.5037H112.035L108.259 84.6624L105.634 87.4713L104.621 93.5037H98.2202ZM135.485 77.2947C135.554 76.5349 135.37 75.9401 134.932 75.5103C134.495 75.0729 133.758 74.8541 132.722 74.8541C132.062 74.8541 131.509 74.9309 131.064 75.0844C130.627 75.2379 130.285 75.4489 130.04 75.7175C129.802 75.9862 129.652 76.297 129.591 76.65C129.522 76.9263 129.525 77.1796 129.602 77.4098C129.687 77.6324 129.844 77.8358 130.074 78.02C130.312 78.2041 130.623 78.3692 131.007 78.515C131.398 78.6608 131.862 78.7913 132.4 78.9064L134.242 79.3208C135.5 79.5971 136.556 79.9617 137.407 80.4145C138.267 80.8596 138.942 81.3891 139.434 82.0031C139.925 82.6171 140.247 83.304 140.401 84.0638C140.562 84.8236 140.566 85.6524 140.412 86.5504C140.151 88.1007 139.549 89.413 138.605 90.4875C137.661 91.562 136.429 92.3793 134.909 92.9396C133.39 93.4998 131.632 93.78 129.637 93.78C127.595 93.78 125.861 93.4768 124.433 92.8705C123.013 92.2565 121.985 91.3202 121.348 90.0616C120.719 88.7952 120.565 87.1797 120.888 85.215H126.966C126.874 85.9364 126.951 86.5427 127.196 87.0339C127.442 87.5251 127.837 87.8973 128.382 88.1506C128.927 88.4038 129.606 88.5305 130.42 88.5305C131.11 88.5305 131.701 88.446 132.192 88.2772C132.684 88.1083 133.071 87.8743 133.355 87.575C133.639 87.2756 133.812 86.9341 133.873 86.5504C133.935 86.1973 133.873 85.8827 133.689 85.6064C133.505 85.3301 133.171 85.0807 132.687 84.8581C132.204 84.6355 131.54 84.4322 130.696 84.248L128.44 83.7414C126.436 83.281 124.924 82.5212 123.904 81.4621C122.883 80.4029 122.522 78.9524 122.822 77.1105C123.067 75.6063 123.685 74.2939 124.675 73.1734C125.673 72.0452 126.939 71.1703 128.474 70.5486C130.017 69.9193 131.724 69.6046 133.597 69.6046C135.5 69.6046 137.093 69.9231 138.374 70.5601C139.664 71.1971 140.589 72.0913 141.149 73.2425C141.717 74.3937 141.87 75.7444 141.609 77.2947H135.485Z" fill="white"/>
</svg>
